/* XPM */
static char * maximize_pressed_xpm[] = {
"26 26 3 1",
" 	c None",
".	c #ECEDEE",
"+	c #5F91C9",
"..........................",
"..........................",
"..........................",
"..........................",
"..........................",
".....++++++++++++++++.....",
".....++++++++++++++++.....",
".....++++++++++++++++.....",
".....++++++++++++++++.....",
".....++++++++++++++++.....",
".....++++++++++++++++.....",
".....++++++++++++++++.....",
".....++++++++++++++++.....",
".....++++++++++++++++.....",
".....++++++++++++++++.....",
".....++++++++++++++++.....",
".....++++++++++++++++.....",
".....++++++++++++++++.....",
".....++++++++++++++++.....",
".....++++++++++++++++.....",
".....++++++++++++++++.....",
"..........................",
"..........................",
"..........................",
"..........................",
".........................."};
