/* XPM */
static char * close_active_xpm[] = {
"26 26 3 1",
" 	c None",
".	c #ECEDEE",
"+	c #EA7878",
"..........................",
"..........................",
"..........................",
"..........................",
"..........................",
".....++++++++++++++++.....",
".....++++++++++++++++.....",
".....++++++++++++++++.....",
".....++++++++++++++++.....",
".....++++++++++++++++.....",
".....++++++++++++++++.....",
".....++++++++++++++++.....",
".....++++++++++++++++.....",
".....++++++++++++++++.....",
".....++++++++++++++++.....",
".....++++++++++++++++.....",
".....++++++++++++++++.....",
".....++++++++++++++++.....",
".....++++++++++++++++.....",
".....++++++++++++++++.....",
".....++++++++++++++++.....",
"..........................",
"..........................",
"..........................",
"..........................",
".........................."};
