/* XPM */
static char * maximize_toggled_inactive_xpm[] = {
"26 26 3 1",
" 	c None",
".	c #ECEDEE",
"+	c #BCBEC0",
"..........................",
"..........................",
"..........................",
"..........................",
"..........................",
".....++++++++++++++++.....",
".....++++++++++++++++.....",
".....++++++++++++++++.....",
".....++++++++++++++++.....",
".....++++++++++++++++.....",
".....++++++++++++++++.....",
".....++++++++++++++++.....",
".....++++++++++++++++.....",
".....++++++++++++++++.....",
".....++++++++++++++++.....",
".....++++++++++++++++.....",
".....++++++++++++++++.....",
".....++++++++++++++++.....",
".....++++++++++++++++.....",
".....++++++++++++++++.....",
".....++++++++++++++++.....",
"..........................",
"..........................",
"..........................",
"..........................",
".........................."};
